# xmcd
#
# Track frame offsets:
#	150
#	15009
#	30271
#	47434
#	66416
#	87829
#	110184
#	128783
#	143693
#	160445
#	176511
#	191820
#
# Disc length: 2814 seconds
#
# Revision: 0
# Processed by: cddbd v1.5.1PL0 Copyright (c) Steve Scherf et al.
# Submitted via: dBpowerAMP V4.0
#
DISCID=980afc0c
DTITLE=Brett Mouton - Better With Time
DYEAR=2005
DGENRE=Texas Country
TTITLE0=Set Sail
TTITLE1=300 Horses
TTITLE2=Meet Me In La Grange
TTITLE3=Small Town World
TTITLE4=One More Day Without You
TTITLE5=Addicks Reservoir
TTITLE6=I'll Try
TTITLE7=My Last Name
TTITLE8=Drivin Away
TTITLE9=Misty Mornings
TTITLE10=Do As I Please
TTITLE11=Better With Time
EXTD=
EXTT0=
EXTT1=
EXTT2=
EXTT3=
EXTT4=
EXTT5=
EXTT6=
EXTT7=
EXTT8=
EXTT9=
EXTT10=
EXTT11=
PLAYORDER=
